# xmcd
#
# Track frame offsets:
#	150
#	14330
#	31842
#	53081
#	68767
#	83175
#	99623
#	114006
#	135021
#	159424
#
# Disc length: 2292 seconds
#
# Revision: 1
# Processed by: cddbd v1.5.1PL0 Copyright (c) Steve Scherf et al.
# Submitted via: audiograbber 1.80
#
DISCID=6908f20a
DTITLE=Big Cat Daddy and Smokin - Friday Nite Cafe
DYEAR=1900
DGENRE=
TTITLE0=Shack Up
TTITLE1=Sure Beats Working
TTITLE2=Head For The Hills
TTITLE3=Friday Nite Cafe
TTITLE4=Boston Blackie
TTITLE5=Bye Bye Baby
TTITLE6=Looking For A Sign
TTITLE7=Step Back Jack
TTITLE8=You Done Tore Your Playhouse Down Again
TTITLE9=Doormat Blues
EXTD=
EXTT0=
EXTT1=
EXTT2=
EXTT3=
EXTT4=
EXTT5=
EXTT6=
EXTT7=
EXTT8=
EXTT9=
PLAYORDER=
